<svg width="100" height="100" viewBox="0 0 100 100" fill="none" xmlns="http://www.w3.org/2000/svg">
<g clip-path="url(#clip0_911_229)">
<path d="M56.3906 2.95096L57.0008 3.62387C59.3789 6.23609 63.0611 7.22246 66.4257 6.14832L67.2908 5.87247C72.3648 4.25498 77.7314 7.35203 78.8682 12.5556L79.0605 13.4416C79.817 16.8939 82.5086 19.5898 85.9609 20.3421L86.847 20.5343C92.0505 21.6712 95.1476 27.0377 93.5301 32.1117L93.2542 32.9769C92.1842 36.3414 93.1706 40.0236 95.7787 42.4017L96.4516 43.012C100.389 46.598 100.389 52.7921 96.4516 56.3782L95.7787 56.9884C93.1664 59.3666 92.1801 63.0487 93.2542 66.4133L93.5301 67.2784C95.1476 72.3524 92.0505 77.719 86.847 78.8558L85.9609 79.0481C82.5086 79.8046 79.8128 82.4962 79.0605 85.9485L78.8682 86.8346C77.7314 92.0381 72.3648 95.1352 67.2908 93.5177L66.4257 93.2418C63.0611 92.1719 59.3789 93.1582 57.0008 95.7663L56.3906 96.4392C52.8045 100.376 46.6104 100.376 43.0244 96.4392L42.4141 95.7663C40.036 93.154 36.3538 92.1677 32.9893 93.2418L32.1241 93.5177C27.0501 95.1352 21.6836 92.0381 20.5467 86.8346L20.3545 85.9485C19.598 82.4962 16.9063 79.8004 13.454 79.0481L12.568 78.8558C7.36442 77.719 4.26737 72.3524 5.88486 67.2784L6.16071 66.4133C7.23067 63.0487 6.2443 59.3666 3.63626 56.9884L2.96335 56.3782C-0.973786 52.7921 -0.973786 46.598 2.96335 43.012L3.63626 42.4017C6.24848 40.0236 7.23485 36.3414 6.16071 32.9769L5.88486 32.1117C4.26737 27.0377 7.36442 21.6712 12.568 20.5343L13.454 20.3421C16.9063 19.5856 19.6021 16.8939 20.3545 13.4416L20.5467 12.5556C21.6836 7.35203 27.0501 4.25498 32.1241 5.87247L32.9893 6.14832C36.3538 7.21828 40.036 6.23191 42.4141 3.62387L43.0244 2.95096C46.6104 -0.986176 52.8045 -0.986176 56.3906 2.95096Z" fill="#E85A3E"/>
<path d="M21.5116 67.9917L21.1734 68.0428L20.9004 68.1281L20.5049 68.1699L20.2335 68.1729L19.8225 68.1651L19.5681 68.1356L19.4037 68.1324L19.0842 68.0688L18.9617 68.0253L18.5848 67.9524L18.1133 67.6638L18.0001 67.5629L17.707 67.4093L17.4077 67.1487L17.3364 67.0075L17.0712 66.6818L16.9503 66.5561L16.7751 66.2567L16.6634 66.0737L16.5937 65.8503L16.4898 65.6921L16.4355 65.5184L16.2851 65.2112L16.1363 64.8219L16.0588 64.5737L16.0216 64.3674L15.9038 64.0774L15.8279 63.747L15.8806 63.5671L15.9892 63.4787L16.3289 63.3454L16.5104 63.3159L16.6686 63.212L16.8749 63.1748L17.4209 63.0043L17.6272 62.9672L17.801 62.9129L18.1903 62.7641L18.3392 62.7176L18.5455 62.6804L18.7006 62.7409L18.7533 62.9968L18.823 63.2202L18.9889 63.577L19.0819 63.8748L19.3052 64.2409L19.5394 64.4674L19.8061 64.7109L20.1488 64.849L20.4854 64.8801L20.9321 64.7406L21.1974 64.6306L21.3804 64.5189L21.5821 64.2925L21.759 64.0739L21.9126 63.7807L21.9746 63.5434L22.0135 63.2317L22.0601 62.9448L22.0322 62.6811L22.0059 62.3352L22.0029 62.0638L21.9657 61.8575L21.9362 61.676L21.882 61.5023L21.8696 61.2882L21.8324 61.0819L21.7968 60.7934L21.7193 60.5452L21.5829 59.9341L21.3969 59.3385L21.2388 59.0065L20.9985 58.673L20.7069 58.4372L20.3393 58.3068L19.9857 58.3083L19.7965 58.3129L19.5157 58.3734L19.1512 58.5144L18.9263 58.6664L18.7246 58.8928L18.5384 59.1689L18.4096 59.4542L18.346 59.7737L18.3242 60.0529L18.0745 60.2126L15.816 60.9179L15.6268 60.9225L15.4888 60.8294L15.3926 60.696L15.3648 60.4323L15.3524 60.2183L15.2982 60.0446L15.2935 59.8553L15.2812 59.6413L15.2719 59.2628L15.2177 59.0891L15.1914 58.7432L15.1371 58.5695L15.086 58.2314L15.0597 57.8855L15.0722 57.6637L14.9947 57.4155L15.0149 57.2185L14.9808 56.8478L14.9514 56.6663L14.9251 56.3205L14.9282 56.1561L14.8771 55.8179L14.8508 55.472L14.871 55.2751L14.8168 55.1013L14.7873 54.9199L14.7533 54.5492L14.7238 54.3677L14.6401 54.0125L14.6603 53.8155L14.6015 53.4525L14.5829 53.1315L14.5612 52.9748L14.5349 52.6289L14.5009 52.2582L14.4498 51.9201L14.4374 51.7061L14.4111 51.3602L14.3926 51.0391L14.7013 50.8065L15.8848 50.4097L16.2074 50.3089L16.454 50.3136L16.6278 50.2594L16.8356 50.14L17.1164 50.0795L17.2808 50.0827L17.4964 49.9881L17.7368 49.8858L18.0176 49.8254L18.2409 49.7556L18.3976 49.7339L19.291 49.4549L19.6307 49.3216L20.2264 49.1356L20.5661 49.0023L20.8871 48.9837L21.0624 48.8473L21.3106 48.7697L21.5991 48.7341L21.9962 48.6101L22.249 48.7219L22.314 49.1918L22.3652 49.53L22.3666 49.8836L22.41 50.1969L22.4053 50.4435L22.4657 50.7243L22.5014 51.0128L22.4951 51.3416L22.5198 51.7697L22.3197 51.9139L21.783 52.027L21.5674 52.1216L21.2619 52.1898L20.6988 52.3928L20.3343 52.5339L19.9294 52.6331L19.416 52.8207L19.1353 52.8811L18.6389 53.0361L18.3985 53.1384L18.2821 53.202L18.1006 53.2314L17.9347 53.3105L17.8664 53.4408L17.8695 53.7122L17.8709 54.0658L17.8678 54.2303L17.9159 54.297L17.9205 54.4862L17.9887 54.7917L18.049 55.5083L18.1172 55.8139L18.1373 56.0528L18.1404 56.3242L18.2381 56.3754L18.3885 56.2467L18.5732 56.0528L18.7314 55.949L18.9144 55.8373L19.1394 55.6854L19.4046 55.5753L20.174 55.335L20.3803 55.2979L20.9169 55.1847L21.2132 55.1739L21.452 55.1538L21.7219 55.233L21.9515 55.2702L22.2539 55.3665L22.6044 55.5294L23.0603 55.7683L23.4077 56.0957L23.6077 56.3873L23.8093 56.5967L23.9845 56.8961L24.1846 57.1878L24.3272 57.4701L24.4512 57.8672L24.538 58.058L24.6155 58.3061L24.7489 58.6458L24.9194 59.1918L25.048 59.7781L25.0991 60.1163L25.1456 60.2652L25.1951 60.6855L25.2369 61.081L25.2617 61.5091L25.3624 61.8318L25.3422 62.0287L25.3872 62.2599L25.4244 62.4662L25.3948 62.7205L25.3792 63.1067L25.4055 63.4526L25.4008 63.6992L25.3279 64.0761L25.2223 64.4359L25.1261 64.7384L25.0888 64.9679L24.9352 65.261L24.8731 65.4983L24.7443 65.7837L24.5163 66.1L24.296 66.4412L24.0028 66.7235L23.6522 66.9964L23.2938 67.2445L22.5632 67.6088L22.2065 67.7747L21.5116 67.9917ZM33.2984 64.3381L32.5957 64.5303L32.2405 64.614L31.8279 64.6883L31.6558 64.6604L31.2106 64.7177L31.0462 64.7146L30.6522 64.6742L30.249 64.6911L29.807 64.584L29.4146 64.4614L29.1137 64.283L28.9679 64.1651L28.7803 64.0875L28.5135 63.8439L28.3429 63.7338L28.101 63.4825L27.9336 63.2079L27.7304 63.0807L27.6513 62.9147L27.4978 62.772L27.3691 62.6215L27.2358 62.2818L27.1273 61.9343L27.0839 61.621L26.9506 61.2813L26.7738 61.0642L26.7708 60.7927L26.7336 60.5864L26.6406 60.2886L26.6065 59.9179L26.5709 59.6294L26.4283 59.3471L26.4346 59.0183L26.3431 58.6383L26.2936 58.2179L26.2363 57.7728L26.1991 57.5665L26.1495 57.1461L26.0674 56.7087L26.0334 56.338L26.0117 56.1814L25.9435 55.8758L25.9141 55.6943L25.88 55.3236L25.8506 55.1421L25.846 54.9529L25.784 54.7544L25.7747 54.3759L25.7159 54.013L25.6973 53.6919L25.6291 53.3863L25.5997 53.2049L25.637 52.9753L25.6091 52.7116L25.53 52.5457L25.5254 52.3564L25.4914 51.9857L25.4449 51.8368L25.4247 51.598L25.4511 51.508L25.4651 51.204L25.4031 51.0055L25.3768 50.6596L25.4079 50.323L25.4607 50.1431L25.4809 49.9461L25.5694 49.6189L25.5725 49.4545L25.6578 49.2916L25.7184 49.1365L25.8735 48.7612L25.9263 48.5813L26.0737 48.1812L26.2165 48.0276L26.3344 47.8819L26.4771 47.7283L26.7129 47.4368L26.9813 47.1623L27.1488 47.001L27.3241 46.8646L27.5149 46.7778L27.6576 46.6242L27.8655 46.5048L28.0486 46.3932L28.2145 46.3141L28.472 46.1793L28.8939 46.0475L29.3732 45.9251L30.4373 45.7562L30.6094 45.7842L30.9382 45.7904L31.3074 45.8386L31.6021 45.91L31.7742 45.9379L32.0441 46.0171L32.3791 46.1304L32.7544 46.2856L32.8676 46.3864L33.1669 46.647L33.4988 46.9247L33.7639 47.2505L33.8601 47.3839L33.9221 47.5825L34.1717 47.8586L34.2679 47.992L34.3934 48.3069L34.5066 48.4077L34.5686 48.6063L34.671 48.8467L34.7826 49.0297L34.8508 49.3353L34.888 49.5416L34.9919 49.6998L35.0058 49.8317L35.0585 50.0876L35.0957 50.2939L35.2228 50.5266L35.2739 50.8647L35.2785 51.0539L35.2909 51.268L35.3203 51.4494L35.3715 51.7876L35.4412 52.0109L35.4768 52.2994L35.4876 52.5957L35.5 52.8097L35.5852 53.0827L35.6147 53.2642L35.6689 53.4379L35.6487 53.6349L35.6905 54.0304L35.7448 54.2042L35.7788 54.5749L35.8299 54.913L35.8578 55.1767L36.0438 55.7723L36.0484 55.9615L36.0701 56.1182L36.1538 56.4734L36.1336 56.6704L36.1708 56.8767L36.1754 57.0659L36.2358 57.3466L36.2885 57.6026L36.3335 57.8337L36.3629 58.0152L36.3675 58.2044L36.3938 58.5503L36.4729 58.7162L36.4899 59.1195L36.5022 59.3336L36.5533 59.6717L36.5145 59.9834L36.561 60.1324L36.5331 60.3045L36.4446 60.6318L36.4166 60.8039L36.4274 61.1002L36.3669 61.2553L36.2552 61.5081L36.2257 61.7624L36.1388 62.0075L36.01 62.2928L35.9091 62.406L35.7664 62.5596L35.6407 62.6805L35.5042 62.9411L35.3786 63.062L35.0621 63.2698L34.9613 63.383L34.6603 63.6404L34.4773 63.752L34.319 63.8559L34.1112 63.9753L33.9111 64.1195L33.2984 64.3381ZM31.8487 61.4405L32.2458 61.3165L32.7127 60.98L32.8586 60.6621L32.9114 60.4822L32.9952 59.9657L32.9596 59.6772L32.8992 59.3964L32.8961 59.125L32.9241 58.9529L32.8295 58.7372L32.7923 58.5309L32.7877 58.3417L32.704 57.9865L32.7072 57.8221L32.6483 57.4592L32.5785 57.2358L32.5413 57.0295L32.5212 56.7906L32.453 56.4851L32.4112 56.0896L32.3601 55.7514L32.3338 55.4055L32.2253 55.0581L32.2285 54.8937L32.2487 54.6967L32.2611 54.4749L32.2069 54.3012L32.1402 53.9134L32.1279 53.6994L32.0256 53.4589L32.0551 53.2046L31.9481 52.7749L31.8815 52.3871L31.8195 52.1886L31.8103 51.8101L31.7514 51.4472L31.6677 51.092L31.646 50.9353L31.5592 50.7445L31.5298 50.5631L31.4755 50.3893L31.4322 50.076L31.2895 49.7937L31.105 49.5517L31.0337 49.4105L30.8879 49.2926L30.6196 49.1313L30.4149 49.0863L30.2427 49.0583L30.0287 49.0707L29.7061 49.1714L29.4982 49.2908L29.3555 49.4443L29.0452 49.7591L28.935 49.9297L28.8745 50.0848L28.8419 50.5036L28.803 50.8153L28.8976 51.031L28.9084 51.3272L28.9518 51.6405L28.9533 51.9942L28.9718 52.3152L29.0307 52.6782L29.1144 53.0334L29.1283 53.1652L29.1298 53.5189L29.1096 53.7158L29.1778 54.0214L29.2211 54.3347L29.2506 54.5162L29.3467 54.6496L29.3916 54.8807L29.3869 55.1273L29.4365 55.5477L29.5031 55.9354L29.5899 56.1262L29.5945 56.3155L29.6565 56.514L29.6767 56.7529L29.7138 56.9592L29.7262 57.1732L29.7354 57.5517L29.8827 58.0232L29.8951 58.2372L29.9229 58.5009L30.1167 59.1214L30.1461 59.3028L30.1414 59.5495L30.1957 59.7232L30.267 59.8643L30.3119 60.0955L30.5491 60.5934L30.6359 60.7842L30.7073 60.9253L30.8608 61.0681L30.9647 61.2263L31.0779 61.3271L31.4051 61.4156L31.5695 61.4187L31.8487 61.4405ZM41.3986 61.5089L49.0184 39.6812L50.9542 39.0767L43.3344 60.9044L41.3986 61.5089ZM41.2946 54.0236C40.3846 54.3078 39.5858 54.2213 38.8983 53.7641C38.2056 53.2904 37.6784 52.4745 37.3167 51.3163C37.1669 50.8365 37.0326 50.261 36.9138 49.5899C36.795 48.9188 36.729 48.2131 36.7157 47.4727C36.7189 46.7272 36.8039 46.0106 36.9705 45.323C37.1485 44.6137 37.4562 44.0001 37.8937 43.4821C38.326 42.9476 38.9227 42.5616 39.6838 42.3239C40.6269 42.0294 41.4396 42.1024 42.122 42.5431C42.7992 42.9671 43.3083 43.7252 43.6493 44.8172C43.7888 45.2639 43.9123 45.8337 44.0197 46.5265C44.1385 47.1976 44.2014 47.9224 44.2085 48.7011C44.2104 49.4631 44.1167 50.2097 43.9273 50.9407C43.7545 51.6665 43.4545 52.305 43.0273 52.856C42.6167 53.4019 42.0391 53.7911 41.2946 54.0236ZM40.9568 52.3314C41.387 52.197 41.7102 51.9236 41.9264 51.5111C42.1539 51.0768 42.2978 50.5779 42.3578 50.0144C42.4128 49.4343 42.4129 48.8532 42.3582 48.2711C42.32 47.6837 42.2509 47.1424 42.1507 46.6471C42.067 46.1466 41.9864 45.7723 41.9089 45.5241C41.6971 44.8457 41.4371 44.3912 41.129 44.1606C40.8158 43.9134 40.4523 43.8544 40.0387 43.9836C39.6085 44.1179 39.2827 44.3831 39.0614 44.779C38.84 45.175 38.6941 45.6382 38.6237 46.1687C38.5533 46.6991 38.5372 47.258 38.5753 47.8453C38.6248 48.4109 38.694 48.9523 38.7828 49.4693C38.8882 49.9812 38.9925 50.4025 39.0959 50.7335C39.3026 51.3953 39.5568 51.8606 39.8587 52.1295C40.1771 52.3933 40.5432 52.4605 40.9568 52.3314ZM52.6194 58.2772C51.7094 58.5614 50.9106 58.4749 50.2231 58.0177C49.5356 57.5605 49.011 56.7529 48.6493 55.5947C48.4943 55.0983 48.3574 54.5146 48.2386 53.8435C48.1146 53.1559 48.046 52.4419 48.0327 51.7015C48.036 50.956 48.1292 50.2368 48.3123 49.5441C48.4955 48.8513 48.7975 48.2485 49.2185 47.7357C49.6508 47.2012 50.2475 46.8152 51.0086 46.5775C51.9682 46.2778 52.7892 46.3483 53.4716 46.7889C54.1488 47.213 54.6553 47.9627 54.9912 49.0382C55.1307 49.4849 55.2541 50.0547 55.3615 50.7475C55.4638 51.4238 55.5184 52.1512 55.5255 52.9298C55.5274 53.6919 55.4446 54.4441 55.2769 55.1865C55.1041 55.9124 54.8041 56.5508 54.3769 57.1019C53.9498 57.6529 53.3639 58.0447 52.6194 58.2772ZM52.2816 56.585C52.7118 56.4506 53.035 56.1772 53.2511 55.7647C53.4787 55.3304 53.6225 54.8315 53.6826 54.268C53.7375 53.6879 53.7377 53.1068 53.683 52.5246C53.6397 51.9208 53.5705 51.3795 53.4754 50.9007C53.3918 50.4002 53.3112 50.0259 53.2337 49.7777C53.0219 49.0993 52.7619 48.6448 52.4538 48.4142C52.1405 48.167 51.7771 48.108 51.3635 48.2371C50.9333 48.3715 50.6075 48.6366 50.3862 49.0326C50.1648 49.4286 50.0189 49.8918 49.9485 50.4223C49.8946 50.9475 49.8868 51.5038 49.9249 52.0912C49.9744 52.6568 50.0436 53.1981 50.1324 53.7151C50.2378 54.227 50.3421 54.6484 50.4455 54.9793C50.6522 55.6411 50.9064 56.1065 51.2083 56.3754C51.5102 56.6443 51.868 56.7141 52.2816 56.585ZM64.5494 54.7151L63.8809 54.8421L63.566 54.9677L63.3846 54.9971L63.1534 55.0421L62.5284 55.0466L62.3221 55.0838L61.9188 55.1008L61.7141 55.0557L61.2969 54.9409L60.7339 54.7081L60.2625 54.4195L60.1492 54.3187L59.9864 54.2334L59.8654 54.1077L59.6871 53.9727L59.3878 53.7121L59.3413 53.5632L59.2126 53.4127L59.1413 53.2715L59.0529 53.163L58.9568 53.0296L58.8777 52.8636L58.7815 52.7302L58.6482 52.3905L58.5769 52.2493L58.3474 51.7762L58.3428 51.587L58.1956 51.1154L58.1925 50.844L58.1057 50.6532L58.0515 50.4795L57.9306 49.918L57.9214 49.5395L57.8594 49.341L57.8005 48.978L57.7462 48.8043L57.737 48.4259L57.6486 48.3173L57.5975 47.9791L57.5929 47.7899L57.5278 47.3199L57.5093 46.9989L57.4085 46.6762L57.39 46.3552L57.3357 46.1814L57.3637 46.0093L57.3591 45.8201L57.3126 45.6711L57.3079 45.4819L57.2366 45.3408L57.308 45.0461L57.3034 44.8568L57.1949 44.5094L57.1515 44.1961L57.1717 43.9991L57.1501 43.8424L57.0912 43.4795L56.9967 42.828L57.0665 42.6156L57.0154 42.2774L57.0636 41.9083L57.0838 41.7113L57.09 41.3825L57.1056 40.9963L57.1615 40.652L57.2066 40.4473L57.3292 40.0549L57.2997 39.8734L57.3525 39.6935L57.4503 39.3088L57.5558 38.949L57.6908 38.7707L57.7684 38.583L57.9996 38.1023L58.2525 37.7781L58.4278 37.6417L58.5627 37.4633L58.8063 37.1966L59.0576 36.9547L59.3989 36.7392L59.5401 36.6678L59.8813 36.4523L60.1217 36.35L60.5452 36.136L60.8849 36.0027L61.175 35.8849L61.6295 35.7702L61.7861 35.7485L62.0669 35.6881L62.4795 35.6137L62.7013 35.6262L62.9075 35.589L63.072 35.5921L63.4985 35.6496L64.0382 35.8079L64.2755 35.87L64.4461 35.9802L64.7888 36.1183L65.1393 36.2812L65.3099 36.3913L65.4386 36.5418L65.6883 36.818L65.8093 36.9436L65.9054 37.077L66.0093 37.2352L66.2 37.5843L66.3969 38.0403L66.4837 38.2311L66.538 38.4048L66.6139 38.7352L66.6356 38.8919L66.7611 39.2068L66.8154 39.3805L66.8913 39.7109L66.896 39.9001L66.9176 40.0567L66.9967 40.2227L67.0742 40.4709L67.0959 40.6276L67.1548 40.9905L67.2462 41.3705L67.3454 41.7754L67.35 41.9646L67.4244 42.3772L67.5267 42.6176L67.4879 42.9294L67.6057 43.2194L67.6072 43.5731L67.6583 43.9112L67.6846 44.2571L67.7528 44.5627L67.7791 44.9085L67.7511 45.0807L67.8162 45.5507L67.8859 45.774L67.8905 45.9633L67.9494 46.3262L67.9214 46.4984L67.9445 47.4445L68.0158 47.5857L67.9848 47.9222L67.9568 48.0944L68.0172 48.3751L67.9784 48.6869L67.9969 49.008L68.0512 49.1817L68.062 49.4779L67.9922 49.6904L68.0448 49.9463L67.9796 50.348L67.9206 50.8568L67.8507 51.0692L67.7281 51.4616L67.6754 51.6415L67.5978 51.8292L67.5946 51.9936L67.3898 52.3844L67.2797 52.555L67.2021 52.7427L66.974 53.059L66.7382 53.3506L66.6622 53.456L66.1611 53.8577L65.9952 53.9367L65.8121 54.0484L65.4879 54.2313L65.3219 54.3104L65.0722 54.4701L64.5494 54.7151ZM63.2969 51.4018L63.6195 51.3011L63.9359 51.0933L64.1283 50.9243L64.3983 50.5676L64.4635 50.1659L64.5039 49.7719L64.4993 49.5827L64.4373 49.3842L64.3955 48.9886L64.3908 48.7994L64.332 48.4365L64.3444 48.2147L64.2607 47.8595L64.2809 47.6625L64.2546 47.3166L64.2175 47.1103L64.2454 46.9381L64.1834 46.7396L64.1353 46.6729L64.14 46.4263L64.0982 46.0308L63.9696 45.4444L63.9743 45.1978L63.9868 44.976L63.8892 44.489L63.9171 44.3168L63.7605 43.9027L63.7436 43.4994L63.7002 43.1861L63.6878 42.972L63.6832 42.7828L63.6041 42.6168L63.5282 42.2865L63.5158 42.0724L63.4818 41.7017L63.4617 41.4629L63.3609 41.1402L63.271 40.678L63.1951 40.3476L63.1362 39.9847L62.882 39.5193L62.7362 39.4014L62.4927 39.2323L62.0414 39.1826L61.5776 39.3546L61.3945 39.4663L61.0439 39.7392L60.8655 40.0401L60.777 40.3673L60.7708 40.6961L60.7258 40.9008L60.6776 41.27L60.6822 41.4592L60.6946 41.6733L60.7084 42.2409L60.7239 42.2906L60.7611 42.4969L60.7952 42.8676L60.8169 43.0242L60.8261 43.4027L60.8601 43.7734L60.9097 44.1937L60.9391 44.3752L60.9437 44.5644L61.0104 44.9522L60.9979 45.174L61.0226 45.6021L61.0272 45.7913L61.0861 46.1543L61.1404 46.328L61.1698 46.5095L61.2566 46.7002L61.2364 46.8972L61.2208 47.2834L61.3077 47.4742L61.3123 47.6634L61.3681 47.755L61.3882 47.9938L61.4502 48.1924L61.4548 48.3816L61.5168 48.5801L61.5586 48.9757L61.6129 49.1494L61.5927 49.3464L61.7214 49.4968L61.7896 49.8024L61.7678 50.0816L61.8965 50.2321L62.1135 50.927L62.2422 51.0774L62.3229 51.1612L62.5415 51.3381L62.7044 51.4234L62.9262 51.4359L63.1402 51.4235L63.2969 51.4018ZM71.9121 52.0072L71.6562 52.0599L71.3429 52.1033L71.1661 51.8861L71.0809 51.6131L71.1181 51.3836L70.9848 51.0439L70.9631 50.8872L70.9337 50.7057L70.8981 50.4172L70.9353 50.1877L70.9137 50.031L70.8842 49.8496L70.8083 49.5192L70.7711 49.3129L70.7619 48.9344L70.7836 48.6552L70.7139 48.4319L70.717 48.2675L70.6333 47.9123L70.638 47.6657L70.576 47.4671L70.5792 47.3027L70.5249 47.129L70.5312 46.8002L70.4227 46.4527L70.3716 46.1146L70.3871 45.7284L70.3376 45.308L70.2585 45.1421L70.1919 44.7543L70.2121 44.5573L70.1036 44.2099L69.9859 43.484L69.9844 43.1303L69.9301 42.9566L69.8961 42.5859L69.8202 42.2555L69.8187 41.9019L69.8249 41.573L69.8203 41.3838L69.8018 41.0628L69.7088 40.7649L69.6499 40.402L69.6701 40.205L69.6112 39.8421L69.6066 39.6528L69.5555 39.3147L69.4842 39.1735L69.4547 38.9921L69.4005 38.8183L69.3711 38.6369L69.3711 38.201L69.3169 38.0273L69.3448 37.8551L69.2612 37.4999L69.2349 37.154L69.238 36.9896L69.2008 36.7833L69.1249 36.453L69.0644 36.1722L69.1095 35.9675L69.0475 35.7689L69.0072 35.2912L68.9561 34.9531L68.967 34.8135L68.8492 34.5234L68.8197 34.342L68.7764 34.0286L69.0354 33.8115L70.236 33.3821L71.1372 33.1279L71.7902 32.9513L74.6939 32.0445L75.0988 31.9453L75.3966 31.8523L75.7502 31.8508L75.8867 32.0261L75.8913 32.2153L75.9766 32.4883L76.0277 32.8265L76.0664 32.9505L76.1237 33.3957L76.15 33.7416L76.1717 33.8982L76.226 34.072L76.2662 34.5497L76.3545 35.0941L76.1699 35.288L75.9388 35.3329L75.5572 35.5065L75.0701 35.6042L74.7149 35.6878L74.0774 35.9142L73.0676 36.2568L72.8195 36.3343L72.8318 36.5483L72.8923 36.8291L72.9217 37.0105L72.9635 37.406L72.9975 37.7768L73.0363 37.9008L73.123 38.5275L73.0858 38.757L73.1478 38.9556L73.1524 39.1448L73.1741 39.3014L73.2283 39.4752L73.2717 39.7885L73.2747 40.0599L73.5555 39.9995L74.6552 39.6833L74.9453 39.5655L75.285 39.4321L75.558 39.3469L75.9132 39.2632L76.0729 39.513L76.1101 39.7193L76.0976 39.941L76.1596 40.1396L76.1689 40.518L76.2076 40.6421L76.2262 40.9632L76.2478 41.1199L76.2773 41.3013L76.3036 41.6472L76.3966 41.945L76.3981 42.2987L76.4321 42.6694L76.3762 43.0137L76.128 43.0912L75.8473 43.1516L74.9538 43.4306L74.3985 43.6585L73.7874 43.7949L73.8369 44.2152L73.8648 44.4789L73.9159 44.8171L73.95 45.1878L73.9639 45.3196L73.9499 45.6236L74.0212 45.7648L74.0475 46.1106L74.0893 46.5062L74.1079 46.8272L74.1093 47.1809L74.1884 47.3468L74.193 47.5361L74.2767 47.8913L74.3232 48.0402L74.3821 48.4031L74.4254 48.7164L74.4549 48.8979L74.399 49.2422L74.4284 49.4237L74.4749 49.5726L74.5043 49.7541L74.5834 49.9201L74.602 50.2411L74.6453 50.5545L74.6468 50.9081L74.4529 51.1593L74.2714 51.1888L74.1054 51.2678L73.5253 51.5035L73.0212 51.6337L72.88 51.705L71.9121 52.0072ZM80.9765 49.1766L80.7206 49.2293L80.4073 49.2726L80.2305 49.0554L80.1452 48.7824L80.1825 48.5529L80.0492 48.2132L80.0275 48.0565L79.9981 47.8751L79.9625 47.5866L79.9997 47.357L79.978 47.2004L79.9486 47.0189L79.8727 46.6885L79.8355 46.4822L79.8263 46.1038L79.848 45.8246L79.7783 45.6012L79.7814 45.4368L79.6977 45.0816L79.7024 44.835L79.6404 44.6364L79.6436 44.472L79.5893 44.2983L79.5956 43.9695L79.4871 43.622L79.4359 43.2839L79.4515 42.8977L79.402 42.4774L79.3229 42.3114L79.2563 41.9236L79.2765 41.7266L79.168 41.3792L79.0503 40.6533L79.0488 40.2996L78.9945 40.1259L78.9605 39.7552L78.8845 39.4248L78.8831 39.0712L78.8893 38.7424L78.8847 38.5532L78.8662 38.2321L78.7732 37.9343L78.7143 37.5713L78.7345 37.3743L78.6756 37.0114L78.671 36.8222L78.6199 36.484L78.5486 36.3429L78.5191 36.1614L78.4649 35.9877L78.4354 35.8062L78.4355 35.3704L78.3813 35.1966L78.4092 35.0245L78.3255 34.6693L78.2992 34.3234L78.3024 34.159L78.2652 33.9527L78.1893 33.6223L78.1288 33.3415L78.1738 33.1368L78.1118 32.9383L78.0716 32.4605L78.0205 32.1224L78.0314 31.9828L77.9136 31.6928L77.8841 31.5113L77.8408 31.198L78.0998 30.9809L79.3004 30.5515L80.2016 30.2973L80.8546 30.1206L83.7583 29.2138L84.1632 29.1146L84.461 29.0216L84.8146 29.0201L84.9511 29.1954L84.9557 29.3847L85.0409 29.6577L85.0921 29.9958L85.1308 30.1199L85.1881 30.565L85.2144 30.9109L85.2361 31.0676L85.2903 31.2413L85.3306 31.719L85.4189 32.2635L85.2343 32.4573L85.0032 32.5022L84.6216 32.6759L84.1345 32.7735L83.7793 32.8572L83.1418 33.0835L82.132 33.4261L81.8838 33.5036L81.8962 33.7176L81.9566 33.9984L81.9861 34.1799L82.0279 34.5754L82.0619 34.9461L82.1007 35.0702L82.1874 35.6968L82.1501 35.9263L82.2121 36.1249L82.2168 36.3141L82.2384 36.4708L82.2927 36.6445L82.3361 36.9578L82.3391 37.2293L82.6199 37.1688L83.7196 36.8526L84.0097 36.7348L84.3494 36.6015L84.6224 36.5162L84.9776 36.4325L85.1373 36.6823L85.1745 36.8886L85.162 37.1104L85.224 37.3089L85.2332 37.6874L85.272 37.8115L85.2905 38.1325L85.3122 38.2892L85.3417 38.4707L85.368 38.8165L85.461 39.1144L85.4624 39.468L85.4965 39.8387L85.4406 40.183L85.1924 40.2605L84.9117 40.321L84.0182 40.6L83.4629 40.8279L82.8518 40.9642L82.9013 41.3846L82.9292 41.6483L82.9803 41.9864L83.0144 42.3571L83.0283 42.4889L83.0143 42.7929L83.0856 42.9341L83.1119 43.28L83.1537 43.6755L83.1722 43.9966L83.1737 44.3502L83.2528 44.5162L83.2574 44.7054L83.3411 45.0606L83.3876 45.2095L83.4465 45.5725L83.4898 45.8858L83.5193 46.0673L83.4634 46.4116L83.4928 46.593L83.5393 46.742L83.5687 46.9234L83.6478 47.0894L83.6663 47.4105L83.7097 47.7238L83.7112 48.0774L83.5173 48.3287L83.3358 48.3581L83.1698 48.4372L82.5897 48.6728L82.0856 48.803L81.9444 48.8743L80.9765 49.1766Z" fill="white"/>
</g>
<defs>
<clipPath id="clip0_911_229">
<rect width="99.4106" height="99.4106" fill="white"/>
</clipPath>
</defs>
</svg>
