<svg width="64" height="65" viewBox="0 0 64 65" fill="none" xmlns="http://www.w3.org/2000/svg">
<g filter="url(#filter0_dddd_894_208)">
<rect x="5" y="4" width="40" height="40" rx="8" fill="#F2F2F2"/>
<rect x="3.5" y="2.5" width="43" height="43" rx="9.5" stroke="#D0D0D0" stroke-width="3"/>
<path d="M33.625 27C33.625 27.2225 33.559 27.44 33.4354 27.625C33.3118 27.81 33.1361 27.9542 32.9305 28.0394C32.725 28.1245 32.4988 28.1468 32.2805 28.1034C32.0623 28.06 31.8618 27.9528 31.7045 27.7955C31.5472 27.6382 31.44 27.4377 31.3966 27.2195C31.3532 27.0012 31.3755 26.775 31.4606 26.5695C31.5458 26.3639 31.69 26.1882 31.875 26.0646C32.06 25.941 32.2775 25.875 32.5 25.875C32.7984 25.875 33.0845 25.9935 33.2955 26.2045C33.5065 26.4155 33.625 26.7016 33.625 27ZM33.1984 30.6834C33.0337 31.7455 32.4949 32.7137 31.6793 33.4135C30.8636 34.1133 29.8247 34.4986 28.75 34.5H26.5C25.3069 34.4988 24.163 34.0243 23.3194 33.1806C22.4757 32.337 22.0012 31.1931 22 30V26.2022C20.5502 26.0195 19.2169 25.3141 18.2502 24.2182C17.2836 23.1223 16.7502 21.7113 16.75 20.25V15.75C16.75 15.5511 16.829 15.3603 16.9697 15.2197C17.1103 15.079 17.3011 15 17.5 15H19.75C19.9489 15 20.1397 15.079 20.2803 15.2197C20.421 15.3603 20.5 15.5511 20.5 15.75C20.5 15.9489 20.421 16.1397 20.2803 16.2803C20.1397 16.421 19.9489 16.5 19.75 16.5H18.25V20.25C18.2499 20.846 18.3683 21.4361 18.5982 21.986C18.8281 22.536 19.1649 23.0347 19.5892 23.4534C20.0134 23.872 20.5166 24.2022 21.0695 24.4248C21.6224 24.6474 22.214 24.7579 22.81 24.75C25.2578 24.7181 27.25 22.6641 27.25 20.1722V16.5H25.75C25.5511 16.5 25.3603 16.421 25.2197 16.2803C25.079 16.1397 25 15.9489 25 15.75C25 15.5511 25.079 15.3603 25.2197 15.2197C25.3603 15.079 25.5511 15 25.75 15H28C28.1989 15 28.3897 15.079 28.5303 15.2197C28.671 15.3603 28.75 15.5511 28.75 15.75V20.1722C28.75 23.2509 26.4503 25.8244 23.5 26.2013V30C23.5 30.7956 23.8161 31.5587 24.3787 32.1213C24.9413 32.6839 25.7044 33 26.5 33H28.75C29.4313 32.9989 30.0919 32.7663 30.6237 32.3405C31.1555 31.9147 31.5269 31.3208 31.6769 30.6562C30.7711 30.4528 29.973 29.9206 29.437 29.1626C28.9009 28.4046 28.6651 27.4748 28.7752 26.553C28.8852 25.6312 29.3332 24.7829 30.0326 24.1724C30.7319 23.5619 31.6329 23.2325 32.5611 23.2479C33.4893 23.2634 34.3788 23.6226 35.0575 24.256C35.7362 24.8895 36.1557 25.7521 36.235 26.6771C36.3143 27.602 36.0477 28.5235 35.4868 29.2633C34.9259 30.003 34.1105 30.5083 33.1984 30.6816V30.6834ZM34.75 27C34.75 26.555 34.618 26.12 34.3708 25.75C34.1236 25.38 33.7722 25.0916 33.361 24.9213C32.9499 24.751 32.4975 24.7064 32.061 24.7932C31.6246 24.88 31.2237 25.0943 30.909 25.409C30.5943 25.7237 30.38 26.1246 30.2932 26.561C30.2064 26.9975 30.251 27.4499 30.4213 27.861C30.5916 28.2722 30.88 28.6236 31.25 28.8708C31.62 29.118 32.055 29.25 32.5 29.25C33.0967 29.25 33.669 29.0129 34.091 28.591C34.5129 28.169 34.75 27.5967 34.75 27Z" fill="#E3322D"/>
</g>
<defs>
<filter id="filter0_dddd_894_208" x="0" y="0" width="64" height="65" filterUnits="userSpaceOnUse" color-interpolation-filters="sRGB">
<feFlood flood-opacity="0" result="BackgroundImageFix"/>
<feColorMatrix in="SourceAlpha" type="matrix" values="0 0 0 0 0 0 0 0 0 0 0 0 0 0 0 0 0 0 127 0" result="hardAlpha"/>
<feOffset dx="1" dy="1"/>
<feGaussianBlur stdDeviation="1"/>
<feColorMatrix type="matrix" values="0 0 0 0 0 0 0 0 0 0 0 0 0 0 0 0 0 0 0.1 0"/>
<feBlend mode="normal" in2="BackgroundImageFix" result="effect1_dropShadow_894_208"/>
<feColorMatrix in="SourceAlpha" type="matrix" values="0 0 0 0 0 0 0 0 0 0 0 0 0 0 0 0 0 0 127 0" result="hardAlpha"/>
<feOffset dx="2" dy="3"/>
<feGaussianBlur stdDeviation="2"/>
<feColorMatrix type="matrix" values="0 0 0 0 0 0 0 0 0 0 0 0 0 0 0 0 0 0 0.09 0"/>
<feBlend mode="normal" in2="effect1_dropShadow_894_208" result="effect2_dropShadow_894_208"/>
<feColorMatrix in="SourceAlpha" type="matrix" values="0 0 0 0 0 0 0 0 0 0 0 0 0 0 0 0 0 0 127 0" result="hardAlpha"/>
<feOffset dx="6" dy="7"/>
<feGaussianBlur stdDeviation="2.5"/>
<feColorMatrix type="matrix" values="0 0 0 0 0 0 0 0 0 0 0 0 0 0 0 0 0 0 0.05 0"/>
<feBlend mode="normal" in2="effect2_dropShadow_894_208" result="effect3_dropShadow_894_208"/>
<feColorMatrix in="SourceAlpha" type="matrix" values="0 0 0 0 0 0 0 0 0 0 0 0 0 0 0 0 0 0 127 0" result="hardAlpha"/>
<feOffset dx="10" dy="12"/>
<feGaussianBlur stdDeviation="3"/>
<feColorMatrix type="matrix" values="0 0 0 0 0 0 0 0 0 0 0 0 0 0 0 0 0 0 0.01 0"/>
<feBlend mode="normal" in2="effect3_dropShadow_894_208" result="effect4_dropShadow_894_208"/>
<feBlend mode="normal" in="SourceGraphic" in2="effect4_dropShadow_894_208" result="shape"/>
</filter>
</defs>
</svg>
