<svg width="64" height="65" viewBox="0 0 64 65" fill="none" xmlns="http://www.w3.org/2000/svg">
<g filter="url(#filter0_dddd_892_178)">
<rect x="5" y="4" width="40" height="40" rx="8" fill="#F2F2F2"/>
<rect x="3.5" y="2.5" width="43" height="43" rx="9.5" stroke="#D0D0D0" stroke-width="3"/>
<path d="M25 14.25C23.0716 14.25 21.1866 14.8218 19.5832 15.8932C17.9798 16.9645 16.7301 18.4873 15.9922 20.2688C15.2542 22.0504 15.0611 24.0108 15.4373 25.9021C15.8136 27.7934 16.7422 29.5307 18.1057 30.8943C19.4693 32.2579 21.2066 33.1865 23.0979 33.5627C24.9892 33.9389 26.9496 33.7458 28.7312 33.0078C30.5127 32.2699 32.0355 31.0202 33.1068 29.4168C34.1782 27.8134 34.75 25.9284 34.75 24C34.7473 21.415 33.7192 18.9366 31.8913 17.1087C30.0634 15.2808 27.585 14.2527 25 14.25ZM28.6656 26.6053C29.2083 25.8449 29.4999 24.9341 29.4999 24C29.4999 23.0659 29.2083 22.155 28.6656 21.3947L31.3375 18.7238C32.5732 20.2043 33.2501 22.0715 33.2501 24C33.2501 25.9285 32.5732 27.7957 31.3375 29.2762L28.6656 26.6053ZM22 24C22 23.4067 22.176 22.8266 22.5056 22.3333C22.8352 21.8399 23.3038 21.4554 23.852 21.2284C24.4001 21.0013 25.0033 20.9419 25.5853 21.0576C26.1672 21.1734 26.7018 21.4591 27.1213 21.8787C27.5409 22.2982 27.8266 22.8328 27.9424 23.4147C28.0581 23.9967 27.9987 24.5999 27.7716 25.1481C27.5446 25.6962 27.1601 26.1648 26.6667 26.4944C26.1734 26.8241 25.5933 27 25 27C24.2044 27 23.4413 26.6839 22.8787 26.1213C22.3161 25.5587 22 24.7956 22 24ZM30.2763 17.6625L27.6053 20.3344C26.845 19.7917 25.9341 19.5001 25 19.5001C24.0659 19.5001 23.1551 19.7917 22.3947 20.3344L19.7238 17.6625C21.2043 16.4268 23.0715 15.7499 25 15.7499C26.9285 15.7499 28.7957 16.4268 30.2763 17.6625ZM18.6625 18.7238L21.3344 21.3947C20.7917 22.155 20.5001 23.0659 20.5001 24C20.5001 24.9341 20.7917 25.8449 21.3344 26.6053L18.6625 29.2762C17.4268 27.7957 16.7499 25.9285 16.7499 24C16.7499 22.0715 17.4268 20.2043 18.6625 18.7238ZM19.7238 30.3375L22.3947 27.6656C23.1551 28.2083 24.0659 28.4999 25 28.4999C25.9341 28.4999 26.845 28.2083 27.6053 27.6656L30.2763 30.3375C28.7957 31.5732 26.9285 32.2501 25 32.2501C23.0715 32.2501 21.2043 31.5732 19.7238 30.3375Z" fill="#E3322D"/>
</g>
<defs>
<filter id="filter0_dddd_892_178" x="0" y="0" width="64" height="65" filterUnits="userSpaceOnUse" color-interpolation-filters="sRGB">
<feFlood flood-opacity="0" result="BackgroundImageFix"/>
<feColorMatrix in="SourceAlpha" type="matrix" values="0 0 0 0 0 0 0 0 0 0 0 0 0 0 0 0 0 0 127 0" result="hardAlpha"/>
<feOffset dx="1" dy="1"/>
<feGaussianBlur stdDeviation="1"/>
<feColorMatrix type="matrix" values="0 0 0 0 0 0 0 0 0 0 0 0 0 0 0 0 0 0 0.1 0"/>
<feBlend mode="normal" in2="BackgroundImageFix" result="effect1_dropShadow_892_178"/>
<feColorMatrix in="SourceAlpha" type="matrix" values="0 0 0 0 0 0 0 0 0 0 0 0 0 0 0 0 0 0 127 0" result="hardAlpha"/>
<feOffset dx="2" dy="3"/>
<feGaussianBlur stdDeviation="2"/>
<feColorMatrix type="matrix" values="0 0 0 0 0 0 0 0 0 0 0 0 0 0 0 0 0 0 0.09 0"/>
<feBlend mode="normal" in2="effect1_dropShadow_892_178" result="effect2_dropShadow_892_178"/>
<feColorMatrix in="SourceAlpha" type="matrix" values="0 0 0 0 0 0 0 0 0 0 0 0 0 0 0 0 0 0 127 0" result="hardAlpha"/>
<feOffset dx="6" dy="7"/>
<feGaussianBlur stdDeviation="2.5"/>
<feColorMatrix type="matrix" values="0 0 0 0 0 0 0 0 0 0 0 0 0 0 0 0 0 0 0.05 0"/>
<feBlend mode="normal" in2="effect2_dropShadow_892_178" result="effect3_dropShadow_892_178"/>
<feColorMatrix in="SourceAlpha" type="matrix" values="0 0 0 0 0 0 0 0 0 0 0 0 0 0 0 0 0 0 127 0" result="hardAlpha"/>
<feOffset dx="10" dy="12"/>
<feGaussianBlur stdDeviation="3"/>
<feColorMatrix type="matrix" values="0 0 0 0 0 0 0 0 0 0 0 0 0 0 0 0 0 0 0.01 0"/>
<feBlend mode="normal" in2="effect3_dropShadow_892_178" result="effect4_dropShadow_892_178"/>
<feBlend mode="normal" in="SourceGraphic" in2="effect4_dropShadow_892_178" result="shape"/>
</filter>
</defs>
</svg>
