<svg width="64" height="65" viewBox="0 0 64 65" fill="none" xmlns="http://www.w3.org/2000/svg">
<g filter="url(#filter0_dddd_892_164)">
<rect x="5" y="4" width="40" height="40" rx="8" fill="#F2F2F2"/>
<rect x="3.5" y="2.5" width="43" height="43" rx="9.5" stroke="#D0D0D0" stroke-width="3"/>
<g clip-path="url(#clip0_892_164)">
<path d="M22.75 20.25V29.25C22.75 29.4489 22.671 29.6397 22.5303 29.7803C22.3897 29.921 22.1989 30 22 30C21.8011 30 21.6103 29.921 21.4697 29.7803C21.329 29.6397 21.25 29.4489 21.25 29.25V20.25C21.25 20.0511 21.329 19.8603 21.4697 19.7197C21.6103 19.579 21.8011 19.5 22 19.5C22.1989 19.5 22.3897 19.579 22.5303 19.7197C22.671 19.8603 22.75 20.0511 22.75 20.25ZM25 19.5C24.8011 19.5 24.6103 19.579 24.4697 19.7197C24.329 19.8603 24.25 20.0511 24.25 20.25V29.25C24.25 29.4489 24.329 29.6397 24.4697 29.7803C24.6103 29.921 24.8011 30 25 30C25.1989 30 25.3897 29.921 25.5303 29.7803C25.671 29.6397 25.75 29.4489 25.75 29.25V20.25C25.75 20.0511 25.671 19.8603 25.5303 19.7197C25.3897 19.579 25.1989 19.5 25 19.5ZM28 19.5C27.8011 19.5 27.6103 19.579 27.4697 19.7197C27.329 19.8603 27.25 20.0511 27.25 20.25V29.25C27.25 29.4489 27.329 29.6397 27.4697 29.7803C27.6103 29.921 27.8011 30 28 30C28.1989 30 28.3897 29.921 28.5303 29.7803C28.671 29.6397 28.75 29.4489 28.75 29.25V20.25C28.75 20.0511 28.671 19.8603 28.5303 19.7197C28.3897 19.579 28.1989 19.5 28 19.5ZM32.5 18V31.5C32.5 31.8978 32.342 32.2794 32.0607 32.5607C31.7794 32.842 31.3978 33 31 33H29.5V34.5C29.5 34.6989 29.421 34.8897 29.2803 35.0303C29.1397 35.171 28.9489 35.25 28.75 35.25C28.5511 35.25 28.3603 35.171 28.2197 35.0303C28.079 34.8897 28 34.6989 28 34.5V33H22V34.5C22 34.6989 21.921 34.8897 21.7803 35.0303C21.6397 35.171 21.4489 35.25 21.25 35.25C21.0511 35.25 20.8603 35.171 20.7197 35.0303C20.579 34.8897 20.5 34.6989 20.5 34.5V33H19C18.6022 33 18.2206 32.842 17.9393 32.5607C17.658 32.2794 17.5 31.8978 17.5 31.5V18C17.5 17.6022 17.658 17.2206 17.9393 16.9393C18.2206 16.658 18.6022 16.5 19 16.5H21.25V14.25C21.25 13.6533 21.4871 13.081 21.909 12.659C22.331 12.2371 22.9033 12 23.5 12H26.5C27.0967 12 27.669 12.2371 28.091 12.659C28.5129 13.081 28.75 13.6533 28.75 14.25V16.5H31C31.3978 16.5 31.7794 16.658 32.0607 16.9393C32.342 17.2206 32.5 17.6022 32.5 18ZM22.75 16.5H27.25V14.25C27.25 14.0511 27.171 13.8603 27.0303 13.7197C26.8897 13.579 26.6989 13.5 26.5 13.5H23.5C23.3011 13.5 23.1103 13.579 22.9697 13.7197C22.829 13.8603 22.75 14.0511 22.75 14.25V16.5ZM31 31.5V18H19V31.5H31Z" fill="#E3322D"/>
</g>
</g>
<defs>
<filter id="filter0_dddd_892_164" x="0" y="0" width="64" height="65" filterUnits="userSpaceOnUse" color-interpolation-filters="sRGB">
<feFlood flood-opacity="0" result="BackgroundImageFix"/>
<feColorMatrix in="SourceAlpha" type="matrix" values="0 0 0 0 0 0 0 0 0 0 0 0 0 0 0 0 0 0 127 0" result="hardAlpha"/>
<feOffset dx="1" dy="1"/>
<feGaussianBlur stdDeviation="1"/>
<feColorMatrix type="matrix" values="0 0 0 0 0 0 0 0 0 0 0 0 0 0 0 0 0 0 0.1 0"/>
<feBlend mode="normal" in2="BackgroundImageFix" result="effect1_dropShadow_892_164"/>
<feColorMatrix in="SourceAlpha" type="matrix" values="0 0 0 0 0 0 0 0 0 0 0 0 0 0 0 0 0 0 127 0" result="hardAlpha"/>
<feOffset dx="2" dy="3"/>
<feGaussianBlur stdDeviation="2"/>
<feColorMatrix type="matrix" values="0 0 0 0 0 0 0 0 0 0 0 0 0 0 0 0 0 0 0.09 0"/>
<feBlend mode="normal" in2="effect1_dropShadow_892_164" result="effect2_dropShadow_892_164"/>
<feColorMatrix in="SourceAlpha" type="matrix" values="0 0 0 0 0 0 0 0 0 0 0 0 0 0 0 0 0 0 127 0" result="hardAlpha"/>
<feOffset dx="6" dy="7"/>
<feGaussianBlur stdDeviation="2.5"/>
<feColorMatrix type="matrix" values="0 0 0 0 0 0 0 0 0 0 0 0 0 0 0 0 0 0 0.05 0"/>
<feBlend mode="normal" in2="effect2_dropShadow_892_164" result="effect3_dropShadow_892_164"/>
<feColorMatrix in="SourceAlpha" type="matrix" values="0 0 0 0 0 0 0 0 0 0 0 0 0 0 0 0 0 0 127 0" result="hardAlpha"/>
<feOffset dx="10" dy="12"/>
<feGaussianBlur stdDeviation="3"/>
<feColorMatrix type="matrix" values="0 0 0 0 0 0 0 0 0 0 0 0 0 0 0 0 0 0 0.01 0"/>
<feBlend mode="normal" in2="effect3_dropShadow_892_164" result="effect4_dropShadow_892_164"/>
<feBlend mode="normal" in="SourceGraphic" in2="effect4_dropShadow_892_164" result="shape"/>
</filter>
<clipPath id="clip0_892_164">
<rect width="24" height="24" fill="white" transform="translate(13 12)"/>
</clipPath>
</defs>
</svg>
