<svg width="64" height="65" viewBox="0 0 64 65" fill="none" xmlns="http://www.w3.org/2000/svg">
<g filter="url(#filter0_dddd_892_157)">
<rect x="5" y="4" width="40" height="40" rx="8" fill="#F2F2F2"/>
<rect x="3.5" y="2.5" width="43" height="43" rx="9.5" stroke="#D0D0D0" stroke-width="3"/>
<g clip-path="url(#clip0_892_157)">
<path d="M36.9456 22.9688L35.6331 19.6875C35.5218 19.4099 35.3296 19.1721 35.0816 19.0049C34.8335 18.8378 34.541 18.749 34.2419 18.75H31V18C31 17.8011 30.921 17.6103 30.7803 17.4697C30.6397 17.329 30.4489 17.25 30.25 17.25H16C15.6022 17.25 15.2206 17.408 14.9393 17.6893C14.658 17.9706 14.5 18.3522 14.5 18.75V29.25C14.5 29.6478 14.658 30.0294 14.9393 30.3107C15.2206 30.592 15.6022 30.75 16 30.75H17.5938C17.759 31.3953 18.1343 31.9673 18.6605 32.3757C19.1867 32.7842 19.8339 33.0059 20.5 33.0059C21.1661 33.0059 21.8133 32.7842 22.3395 32.3757C22.8657 31.9673 23.241 31.3953 23.4063 30.75H28.0938C28.259 31.3953 28.6343 31.9673 29.1605 32.3757C29.6867 32.7842 30.3339 33.0059 31 33.0059C31.6661 33.0059 32.3133 32.7842 32.8395 32.3757C33.3657 31.9673 33.741 31.3953 33.9063 30.75H35.5C35.8978 30.75 36.2794 30.592 36.5607 30.3107C36.842 30.0294 37 29.6478 37 29.25V23.25C37.0003 23.1536 36.9818 23.0581 36.9456 22.9688ZM31 20.25H34.2419L35.1419 22.5H31V20.25ZM16 18.75H29.5V24.75H16V18.75ZM20.5 31.5C20.2033 31.5 19.9133 31.412 19.6666 31.2472C19.42 31.0824 19.2277 30.8481 19.1142 30.574C19.0006 30.2999 18.9709 29.9983 19.0288 29.7074C19.0867 29.4164 19.2296 29.1491 19.4393 28.9393C19.6491 28.7296 19.9164 28.5867 20.2074 28.5288C20.4983 28.4709 20.7999 28.5006 21.074 28.6142C21.3481 28.7277 21.5824 28.92 21.7472 29.1666C21.912 29.4133 22 29.7033 22 30C22 30.3978 21.842 30.7794 21.5607 31.0607C21.2794 31.342 20.8978 31.5 20.5 31.5ZM28.0938 29.25H23.4063C23.241 28.6047 22.8657 28.0327 22.3395 27.6243C21.8133 27.2158 21.1661 26.9941 20.5 26.9941C19.8339 26.9941 19.1867 27.2158 18.6605 27.6243C18.1343 28.0327 17.759 28.6047 17.5938 29.25H16V26.25H29.5V27.4041C29.1551 27.6034 28.8532 27.8692 28.6119 28.1861C28.3705 28.5029 28.1944 28.8646 28.0938 29.25ZM31 31.5C30.7033 31.5 30.4133 31.412 30.1666 31.2472C29.92 31.0824 29.7277 30.8481 29.6142 30.574C29.5007 30.2999 29.4709 29.9983 29.5288 29.7074C29.5867 29.4164 29.7296 29.1491 29.9393 28.9393C30.1491 28.7296 30.4164 28.5867 30.7074 28.5288C30.9983 28.4709 31.2999 28.5006 31.574 28.6142C31.8481 28.7277 32.0824 28.92 32.2472 29.1666C32.412 29.4133 32.5 29.7033 32.5 30C32.5 30.3978 32.342 30.7794 32.0607 31.0607C31.7794 31.342 31.3978 31.5 31 31.5ZM35.5 29.25H33.9063C33.739 28.6063 33.363 28.0362 32.8371 27.629C32.3112 27.2218 31.6651 27.0006 31 27V24H35.5V29.25Z" fill="#E3322D"/>
</g>
</g>
<defs>
<filter id="filter0_dddd_892_157" x="0" y="0" width="64" height="65" filterUnits="userSpaceOnUse" color-interpolation-filters="sRGB">
<feFlood flood-opacity="0" result="BackgroundImageFix"/>
<feColorMatrix in="SourceAlpha" type="matrix" values="0 0 0 0 0 0 0 0 0 0 0 0 0 0 0 0 0 0 127 0" result="hardAlpha"/>
<feOffset dx="1" dy="1"/>
<feGaussianBlur stdDeviation="1"/>
<feColorMatrix type="matrix" values="0 0 0 0 0 0 0 0 0 0 0 0 0 0 0 0 0 0 0.1 0"/>
<feBlend mode="normal" in2="BackgroundImageFix" result="effect1_dropShadow_892_157"/>
<feColorMatrix in="SourceAlpha" type="matrix" values="0 0 0 0 0 0 0 0 0 0 0 0 0 0 0 0 0 0 127 0" result="hardAlpha"/>
<feOffset dx="2" dy="3"/>
<feGaussianBlur stdDeviation="2"/>
<feColorMatrix type="matrix" values="0 0 0 0 0 0 0 0 0 0 0 0 0 0 0 0 0 0 0.09 0"/>
<feBlend mode="normal" in2="effect1_dropShadow_892_157" result="effect2_dropShadow_892_157"/>
<feColorMatrix in="SourceAlpha" type="matrix" values="0 0 0 0 0 0 0 0 0 0 0 0 0 0 0 0 0 0 127 0" result="hardAlpha"/>
<feOffset dx="6" dy="7"/>
<feGaussianBlur stdDeviation="2.5"/>
<feColorMatrix type="matrix" values="0 0 0 0 0 0 0 0 0 0 0 0 0 0 0 0 0 0 0.05 0"/>
<feBlend mode="normal" in2="effect2_dropShadow_892_157" result="effect3_dropShadow_892_157"/>
<feColorMatrix in="SourceAlpha" type="matrix" values="0 0 0 0 0 0 0 0 0 0 0 0 0 0 0 0 0 0 127 0" result="hardAlpha"/>
<feOffset dx="10" dy="12"/>
<feGaussianBlur stdDeviation="3"/>
<feColorMatrix type="matrix" values="0 0 0 0 0 0 0 0 0 0 0 0 0 0 0 0 0 0 0.01 0"/>
<feBlend mode="normal" in2="effect3_dropShadow_892_157" result="effect4_dropShadow_892_157"/>
<feBlend mode="normal" in="SourceGraphic" in2="effect4_dropShadow_892_157" result="shape"/>
</filter>
<clipPath id="clip0_892_157">
<rect width="24" height="24" fill="white" transform="translate(13 12)"/>
</clipPath>
</defs>
</svg>
