<svg width="411" height="43" viewBox="0 0 411 43" fill="none" xmlns="http://www.w3.org/2000/svg">
<rect width="411" height="43" rx="18" fill="#E85A3E"/>
<path d="M22.2 27V16.53H28.89V18.375H24.45V20.775H28.74V22.62H24.45V25.155H28.89V27H22.2ZM32.9941 20.04H32.8291V27H30.9091V16.53H33.6091L35.9941 23.49H36.1591V16.53H38.0791V27H35.3791L32.9941 20.04ZM53.6074 18.375V27H51.3574V18.375H48.3424V16.53H56.6224V18.375H53.6074ZM60.0516 16.53V23.16C60.0516 23.49 60.0616 23.795 60.0816 24.075C60.1116 24.345 60.1716 24.575 60.2616 24.765C60.3616 24.955 60.5066 25.105 60.6966 25.215C60.8866 25.315 61.1466 25.365 61.4766 25.365C61.8066 25.365 62.0666 25.315 62.2566 25.215C62.4466 25.105 62.5866 24.955 62.6766 24.765C62.7766 24.575 62.8366 24.345 62.8566 24.075C62.8866 23.795 62.9016 23.49 62.9016 23.16V16.53H65.1516V22.86C65.1516 23.58 65.1016 24.21 65.0016 24.75C64.9116 25.29 64.7316 25.74 64.4616 26.1C64.1916 26.46 63.8166 26.73 63.3366 26.91C62.8566 27.09 62.2366 27.18 61.4766 27.18C60.7166 27.18 60.0966 27.09 59.6166 26.91C59.1366 26.73 58.7616 26.46 58.4916 26.1C58.2216 25.74 58.0366 25.29 57.9366 24.75C57.8466 24.21 57.8016 23.58 57.8016 22.86V16.53H60.0516ZM79.7048 27.18C78.3048 27.18 77.2648 26.71 76.5848 25.77C75.9148 24.82 75.5798 23.485 75.5798 21.765C75.5798 20.045 75.9148 18.715 76.5848 17.775C77.2648 16.825 78.3048 16.35 79.7048 16.35C80.2448 16.35 80.7198 16.425 81.1298 16.575C81.5498 16.715 81.9098 16.915 82.2098 17.175C82.5098 17.435 82.7548 17.75 82.9448 18.12C83.1448 18.49 83.2998 18.905 83.4098 19.365L81.3098 19.875C81.2498 19.625 81.1798 19.395 81.0998 19.185C81.0198 18.975 80.9148 18.795 80.7848 18.645C80.6648 18.495 80.5098 18.38 80.3198 18.3C80.1398 18.21 79.9198 18.165 79.6598 18.165C79.0498 18.165 78.6148 18.405 78.3548 18.885C78.1048 19.355 77.9798 20.01 77.9798 20.85V22.68C77.9798 23.52 78.1048 24.18 78.3548 24.66C78.6148 25.13 79.0498 25.365 79.6598 25.365C80.1798 25.365 80.5548 25.205 80.7848 24.885C81.0248 24.565 81.1998 24.155 81.3098 23.655L83.4098 24.165C83.2998 24.625 83.1448 25.04 82.9448 25.41C82.7548 25.78 82.5098 26.1 82.2098 26.37C81.9098 26.63 81.5498 26.83 81.1298 26.97C80.7198 27.11 80.2448 27.18 79.7048 27.18ZM87.034 16.53V23.16C87.034 23.49 87.044 23.795 87.064 24.075C87.094 24.345 87.154 24.575 87.244 24.765C87.344 24.955 87.489 25.105 87.679 25.215C87.869 25.315 88.129 25.365 88.459 25.365C88.789 25.365 89.049 25.315 89.239 25.215C89.429 25.105 89.569 24.955 89.659 24.765C89.759 24.575 89.819 24.345 89.839 24.075C89.869 23.795 89.884 23.49 89.884 23.16V16.53H92.134V22.86C92.134 23.58 92.084 24.21 91.984 24.75C91.894 25.29 91.714 25.74 91.444 26.1C91.174 26.46 90.799 26.73 90.319 26.91C89.839 27.09 89.219 27.18 88.459 27.18C87.699 27.18 87.079 27.09 86.599 26.91C86.119 26.73 85.744 26.46 85.474 26.1C85.204 25.74 85.019 25.29 84.919 24.75C84.829 24.21 84.784 23.58 84.784 22.86V16.53H87.034ZM97.4531 27.18C96.0531 27.18 95.0181 26.705 94.3481 25.755C93.6881 24.805 93.3581 23.475 93.3581 21.765C93.3581 20.055 93.6881 18.725 94.3481 17.775C95.0181 16.825 96.0531 16.35 97.4531 16.35C98.8531 16.35 99.8831 16.825 100.543 17.775C101.213 18.725 101.548 20.055 101.548 21.765C101.548 23.475 101.213 24.805 100.543 25.755C99.8831 26.705 98.8531 27.18 97.4531 27.18ZM97.4531 25.365C98.0931 25.365 98.5331 25.13 98.7731 24.66C99.0231 24.18 99.1481 23.515 99.1481 22.665V20.85C99.1481 20.01 99.0231 19.355 98.7731 18.885C98.5331 18.405 98.0931 18.165 97.4531 18.165C96.8131 18.165 96.3681 18.405 96.1181 18.885C95.8781 19.355 95.7581 20.01 95.7581 20.85V22.68C95.7581 23.52 95.8781 24.18 96.1181 24.66C96.3681 25.13 96.8131 25.365 97.4531 25.365ZM107.572 18.375V27H105.322V18.375H102.307V16.53H110.587V18.375H107.572ZM117.466 27L116.806 24.48H113.941L113.296 27H111.016L113.851 16.53H117.031L119.866 27H117.466ZM115.441 18.705H115.321L114.301 22.665H116.461L115.441 18.705ZM129.89 16.53H133.265C134.675 16.53 135.72 16.98 136.4 17.88C137.08 18.78 137.42 20.075 137.42 21.765C137.42 23.455 137.08 24.75 136.4 25.65C135.72 26.55 134.675 27 133.265 27H129.89V16.53ZM133.115 25.23C133.785 25.23 134.275 25.015 134.585 24.585C134.895 24.155 135.05 23.53 135.05 22.71V20.805C135.05 19.995 134.895 19.375 134.585 18.945C134.275 18.515 133.785 18.3 133.115 18.3H132.11V25.23H133.115ZM139.124 27V16.53H145.814V18.375H141.374V20.775H145.664V22.62H141.374V25.155H145.814V27H139.124ZM160.247 27.18C159.367 27.18 158.602 27.035 157.952 26.745C157.302 26.455 156.777 26.06 156.377 25.56L157.682 24.12C158.062 24.54 158.477 24.85 158.927 25.05C159.387 25.25 159.852 25.35 160.322 25.35C160.862 25.35 161.272 25.23 161.552 24.99C161.832 24.75 161.972 24.405 161.972 23.955C161.972 23.585 161.862 23.305 161.642 23.115C161.432 22.925 161.072 22.79 160.562 22.71L159.467 22.53C158.527 22.37 157.847 22.025 157.427 21.495C157.007 20.955 156.797 20.3 156.797 19.53C156.797 18.52 157.127 17.74 157.787 17.19C158.447 16.63 159.372 16.35 160.562 16.35C161.372 16.35 162.077 16.475 162.677 16.725C163.277 16.975 163.762 17.315 164.132 17.745L162.857 19.17C162.577 18.86 162.247 18.62 161.867 18.45C161.487 18.27 161.057 18.18 160.577 18.18C159.567 18.18 159.062 18.595 159.062 19.425C159.062 19.785 159.172 20.055 159.392 20.235C159.622 20.415 159.992 20.55 160.502 20.64L161.597 20.835C162.447 20.985 163.102 21.305 163.562 21.795C164.022 22.285 164.252 22.945 164.252 23.775C164.252 24.265 164.167 24.72 163.997 25.14C163.827 25.55 163.572 25.91 163.232 26.22C162.892 26.52 162.472 26.755 161.972 26.925C161.482 27.095 160.907 27.18 160.247 27.18ZM169.406 27.18C168.006 27.18 166.971 26.705 166.301 25.755C165.641 24.805 165.311 23.475 165.311 21.765C165.311 20.055 165.641 18.725 166.301 17.775C166.971 16.825 168.006 16.35 169.406 16.35C170.806 16.35 171.836 16.825 172.496 17.775C173.166 18.725 173.501 20.055 173.501 21.765C173.501 23.475 173.166 24.805 172.496 25.755C171.836 26.705 170.806 27.18 169.406 27.18ZM169.406 25.365C170.046 25.365 170.486 25.13 170.726 24.66C170.976 24.18 171.101 23.515 171.101 22.665V20.85C171.101 20.01 170.976 19.355 170.726 18.885C170.486 18.405 170.046 18.165 169.406 18.165C168.766 18.165 168.321 18.405 168.071 18.885C167.831 19.355 167.711 20.01 167.711 20.85V22.68C167.711 23.52 167.831 24.18 168.071 24.66C168.321 25.13 168.766 25.365 169.406 25.365ZM178.64 27.18C177.24 27.18 176.2 26.71 175.52 25.77C174.85 24.82 174.515 23.485 174.515 21.765C174.515 20.045 174.85 18.715 175.52 17.775C176.2 16.825 177.24 16.35 178.64 16.35C179.18 16.35 179.655 16.425 180.065 16.575C180.485 16.715 180.845 16.915 181.145 17.175C181.445 17.435 181.69 17.75 181.88 18.12C182.08 18.49 182.235 18.905 182.345 19.365L180.245 19.875C180.185 19.625 180.115 19.395 180.035 19.185C179.955 18.975 179.85 18.795 179.72 18.645C179.6 18.495 179.445 18.38 179.255 18.3C179.075 18.21 178.855 18.165 178.595 18.165C177.985 18.165 177.55 18.405 177.29 18.885C177.04 19.355 176.915 20.01 176.915 20.85V22.68C176.915 23.52 177.04 24.18 177.29 24.66C177.55 25.13 177.985 25.365 178.595 25.365C179.115 25.365 179.49 25.205 179.72 24.885C179.96 24.565 180.135 24.155 180.245 23.655L182.345 24.165C182.235 24.625 182.08 25.04 181.88 25.41C181.69 25.78 181.445 26.1 181.145 26.37C180.845 26.63 180.485 26.83 180.065 26.97C179.655 27.11 179.18 27.18 178.64 27.18ZM184.02 27V25.335H186.27V18.195H184.02V16.53H190.77V18.195H188.52V25.335H190.77V27H184.02ZM196.389 27.18C194.989 27.18 193.954 26.705 193.284 25.755C192.624 24.805 192.294 23.475 192.294 21.765C192.294 20.055 192.624 18.725 193.284 17.775C193.954 16.825 194.989 16.35 196.389 16.35C197.789 16.35 198.819 16.825 199.479 17.775C200.149 18.725 200.484 20.055 200.484 21.765C200.484 23.475 200.149 24.805 199.479 25.755C198.819 26.705 197.789 27.18 196.389 27.18ZM196.389 25.365C197.029 25.365 197.469 25.13 197.709 24.66C197.959 24.18 198.084 23.515 198.084 22.665V20.85C198.084 20.01 197.959 19.355 197.709 18.885C197.469 18.405 197.029 18.165 196.389 18.165C195.749 18.165 195.304 18.405 195.054 18.885C194.814 19.355 194.694 20.01 194.694 20.85V22.68C194.694 23.52 194.814 24.18 195.054 24.66C195.304 25.13 195.749 25.365 196.389 25.365ZM211.257 27V16.53H213.522V25.155H218.022V27H211.257ZM223.371 27.18C221.971 27.18 220.936 26.705 220.266 25.755C219.606 24.805 219.276 23.475 219.276 21.765C219.276 20.055 219.606 18.725 220.266 17.775C220.936 16.825 221.971 16.35 223.371 16.35C224.771 16.35 225.801 16.825 226.461 17.775C227.131 18.725 227.466 20.055 227.466 21.765C227.466 23.475 227.131 24.805 226.461 25.755C225.801 26.705 224.771 27.18 223.371 27.18ZM223.371 25.365C224.011 25.365 224.451 25.13 224.691 24.66C224.941 24.18 225.066 23.515 225.066 22.665V20.85C225.066 20.01 224.941 19.355 224.691 18.885C224.451 18.405 224.011 18.165 223.371 18.165C222.731 18.165 222.286 18.405 222.036 18.885C221.796 19.355 221.676 20.01 221.676 20.85V22.68C221.676 23.52 221.796 24.18 222.036 24.66C222.286 25.13 222.731 25.365 223.371 25.365ZM232.2 27.18C231.32 27.18 230.555 27.035 229.905 26.745C229.255 26.455 228.73 26.06 228.33 25.56L229.635 24.12C230.015 24.54 230.43 24.85 230.88 25.05C231.34 25.25 231.805 25.35 232.275 25.35C232.815 25.35 233.225 25.23 233.505 24.99C233.785 24.75 233.925 24.405 233.925 23.955C233.925 23.585 233.815 23.305 233.595 23.115C233.385 22.925 233.025 22.79 232.515 22.71L231.42 22.53C230.48 22.37 229.8 22.025 229.38 21.495C228.96 20.955 228.75 20.3 228.75 19.53C228.75 18.52 229.08 17.74 229.74 17.19C230.4 16.63 231.325 16.35 232.515 16.35C233.325 16.35 234.03 16.475 234.63 16.725C235.23 16.975 235.715 17.315 236.085 17.745L234.81 19.17C234.53 18.86 234.2 18.62 233.82 18.45C233.44 18.27 233.01 18.18 232.53 18.18C231.52 18.18 231.015 18.595 231.015 19.425C231.015 19.785 231.125 20.055 231.345 20.235C231.575 20.415 231.945 20.55 232.455 20.64L233.55 20.835C234.4 20.985 235.055 21.305 235.515 21.795C235.975 22.285 236.205 22.945 236.205 23.775C236.205 24.265 236.12 24.72 235.95 25.14C235.78 25.55 235.525 25.91 235.185 26.22C234.845 26.52 234.425 26.755 233.925 26.925C233.435 27.095 232.86 27.18 232.2 27.18ZM246.994 27V16.53H251.044C251.554 16.53 252.009 16.61 252.409 16.77C252.809 16.92 253.144 17.14 253.414 17.43C253.694 17.72 253.904 18.07 254.044 18.48C254.184 18.89 254.254 19.35 254.254 19.86C254.254 20.37 254.184 20.83 254.044 21.24C253.904 21.65 253.694 22 253.414 22.29C253.144 22.58 252.809 22.805 252.409 22.965C252.009 23.115 251.554 23.19 251.044 23.19H249.259V27H246.994ZM249.259 21.375H250.474C251.004 21.375 251.369 21.275 251.569 21.075C251.779 20.875 251.884 20.545 251.884 20.085V19.635C251.884 19.175 251.779 18.845 251.569 18.645C251.369 18.445 251.004 18.345 250.474 18.345H249.259V21.375ZM258.208 27H255.988V16.53H260.038C260.548 16.53 261.003 16.61 261.403 16.77C261.803 16.92 262.138 17.14 262.408 17.43C262.688 17.72 262.898 18.07 263.038 18.48C263.178 18.89 263.248 19.35 263.248 19.86C263.248 20.6 263.088 21.235 262.768 21.765C262.448 22.295 261.993 22.645 261.403 22.815L263.458 27H260.998L259.243 23.115H258.208V27ZM259.498 21.375C260.028 21.375 260.393 21.275 260.593 21.075C260.803 20.875 260.908 20.545 260.908 20.085V19.635C260.908 19.175 260.803 18.845 260.593 18.645C260.393 18.445 260.028 18.345 259.498 18.345H258.208V21.375H259.498ZM264.967 27V25.335H267.217V18.195H264.967V16.53H271.717V18.195H269.467V25.335H271.717V27H264.967ZM279.301 22.335L279.421 19.41H279.286L277.336 24.795L275.386 19.41H275.251L275.371 22.335V27H273.421V16.53H276.076L277.366 20.055H277.486L278.776 16.53H281.251V27H279.301V22.335ZM283.03 27V16.53H289.72V18.375H285.28V20.775H289.57V22.62H285.28V25.155H289.72V27H283.03ZM294.184 27H291.964V16.53H296.014C296.524 16.53 296.979 16.61 297.379 16.77C297.779 16.92 298.114 17.14 298.384 17.43C298.664 17.72 298.874 18.07 299.014 18.48C299.154 18.89 299.224 19.35 299.224 19.86C299.224 20.6 299.064 21.235 298.744 21.765C298.424 22.295 297.969 22.645 297.379 22.815L299.434 27H296.974L295.219 23.115H294.184V27ZM295.474 21.375C296.004 21.375 296.369 21.275 296.569 21.075C296.779 20.875 296.884 20.545 296.884 20.085V19.635C296.884 19.175 296.779 18.845 296.569 18.645C296.369 18.445 296.004 18.345 295.474 18.345H294.184V21.375H295.474ZM304.318 27.18C302.918 27.18 301.883 26.705 301.213 25.755C300.553 24.805 300.223 23.475 300.223 21.765C300.223 20.055 300.553 18.725 301.213 17.775C301.883 16.825 302.918 16.35 304.318 16.35C305.718 16.35 306.748 16.825 307.408 17.775C308.078 18.725 308.413 20.055 308.413 21.765C308.413 23.475 308.078 24.805 307.408 25.755C306.748 26.705 305.718 27.18 304.318 27.18ZM304.318 25.365C304.958 25.365 305.398 25.13 305.638 24.66C305.888 24.18 306.013 23.515 306.013 22.665V20.85C306.013 20.01 305.888 19.355 305.638 18.885C305.398 18.405 304.958 18.165 304.318 18.165C303.678 18.165 303.233 18.405 302.983 18.885C302.743 19.355 302.623 20.01 302.623 20.85V22.68C302.623 23.52 302.743 24.18 302.983 24.66C303.233 25.13 303.678 25.365 304.318 25.365ZM313.148 27.18C312.268 27.18 311.503 27.035 310.853 26.745C310.203 26.455 309.678 26.06 309.278 25.56L310.583 24.12C310.963 24.54 311.378 24.85 311.828 25.05C312.288 25.25 312.753 25.35 313.222 25.35C313.763 25.35 314.173 25.23 314.453 24.99C314.733 24.75 314.873 24.405 314.873 23.955C314.873 23.585 314.763 23.305 314.543 23.115C314.333 22.925 313.973 22.79 313.463 22.71L312.368 22.53C311.428 22.37 310.748 22.025 310.328 21.495C309.908 20.955 309.698 20.3 309.698 19.53C309.698 18.52 310.028 17.74 310.688 17.19C311.348 16.63 312.273 16.35 313.463 16.35C314.273 16.35 314.978 16.475 315.578 16.725C316.178 16.975 316.663 17.315 317.033 17.745L315.758 19.17C315.478 18.86 315.148 18.62 314.768 18.45C314.388 18.27 313.958 18.18 313.478 18.18C312.468 18.18 311.963 18.595 311.963 19.425C311.963 19.785 312.073 20.055 312.293 20.235C312.523 20.415 312.893 20.55 313.403 20.64L314.498 20.835C315.348 20.985 316.003 21.305 316.463 21.795C316.923 22.285 317.153 22.945 317.153 23.775C317.153 24.265 317.068 24.72 316.898 25.14C316.728 25.55 316.473 25.91 316.133 26.22C315.793 26.52 315.373 26.755 314.873 26.925C314.383 27.095 313.808 27.18 313.148 27.18ZM330.896 20.67C331.476 20.67 331.896 20.56 332.156 20.34C332.426 20.12 332.561 19.85 332.561 19.53V19.425C332.561 19.045 332.431 18.745 332.171 18.525C331.921 18.295 331.561 18.18 331.091 18.18C330.661 18.18 330.256 18.29 329.876 18.51C329.506 18.72 329.191 19.025 328.931 19.425L327.506 18.105C327.706 17.845 327.926 17.61 328.166 17.4C328.406 17.18 328.671 16.995 328.961 16.845C329.251 16.685 329.576 16.565 329.936 16.485C330.306 16.395 330.721 16.35 331.181 16.35C331.751 16.35 332.266 16.415 332.726 16.545C333.186 16.675 333.576 16.865 333.896 17.115C334.226 17.355 334.481 17.645 334.661 17.985C334.841 18.325 334.931 18.705 334.931 19.125C334.931 19.455 334.876 19.755 334.766 20.025C334.656 20.295 334.506 20.53 334.316 20.73C334.136 20.93 333.921 21.095 333.671 21.225C333.431 21.345 333.171 21.43 332.891 21.48V21.57C333.531 21.68 334.061 21.95 334.481 22.38C334.911 22.8 335.126 23.37 335.126 24.09C335.126 24.56 335.026 24.985 334.826 25.365C334.636 25.745 334.361 26.07 334.001 26.34C333.651 26.61 333.221 26.82 332.711 26.97C332.211 27.11 331.651 27.18 331.031 27.18C330.501 27.18 330.031 27.125 329.621 27.015C329.221 26.905 328.866 26.76 328.556 26.58C328.246 26.39 327.976 26.175 327.746 25.935C327.526 25.685 327.331 25.43 327.161 25.17L328.826 23.88C329.056 24.31 329.341 24.665 329.681 24.945C330.031 25.215 330.496 25.35 331.076 25.35C331.616 25.35 332.031 25.225 332.321 24.975C332.611 24.725 332.756 24.38 332.756 23.94V23.835C332.756 23.405 332.591 23.085 332.261 22.875C331.931 22.655 331.471 22.545 330.881 22.545H329.906V20.67H330.896ZM351.254 22.335L351.374 19.41H351.239L349.289 24.795L347.339 19.41H347.204L347.324 22.335V27H345.374V16.53H348.029L349.319 20.055H349.439L350.729 16.53H353.204V27H351.254V22.335ZM354.983 27V16.53H361.673V18.375H357.233V20.775H361.523V22.62H357.233V25.155H361.673V27H354.983ZM367.112 27.18C366.232 27.18 365.467 27.035 364.817 26.745C364.167 26.455 363.642 26.06 363.242 25.56L364.547 24.12C364.927 24.54 365.342 24.85 365.792 25.05C366.252 25.25 366.717 25.35 367.187 25.35C367.727 25.35 368.137 25.23 368.417 24.99C368.697 24.75 368.837 24.405 368.837 23.955C368.837 23.585 368.727 23.305 368.507 23.115C368.297 22.925 367.937 22.79 367.427 22.71L366.332 22.53C365.392 22.37 364.712 22.025 364.292 21.495C363.872 20.955 363.662 20.3 363.662 19.53C363.662 18.52 363.992 17.74 364.652 17.19C365.312 16.63 366.237 16.35 367.427 16.35C368.237 16.35 368.942 16.475 369.542 16.725C370.142 16.975 370.627 17.315 370.997 17.745L369.722 19.17C369.442 18.86 369.112 18.62 368.732 18.45C368.352 18.27 367.922 18.18 367.442 18.18C366.432 18.18 365.927 18.595 365.927 19.425C365.927 19.785 366.037 20.055 366.257 20.235C366.487 20.415 366.857 20.55 367.367 20.64L368.462 20.835C369.312 20.985 369.967 21.305 370.427 21.795C370.887 22.285 371.117 22.945 371.117 23.775C371.117 24.265 371.032 24.72 370.862 25.14C370.692 25.55 370.437 25.91 370.097 26.22C369.757 26.52 369.337 26.755 368.837 26.925C368.347 27.095 367.772 27.18 367.112 27.18ZM372.971 27V16.53H379.661V18.375H375.221V20.775H379.511V22.62H375.221V25.155H379.661V27H372.971ZM385.101 27.18C384.221 27.18 383.456 27.035 382.806 26.745C382.156 26.455 381.631 26.06 381.231 25.56L382.536 24.12C382.916 24.54 383.331 24.85 383.781 25.05C384.241 25.25 384.706 25.35 385.176 25.35C385.716 25.35 386.126 25.23 386.406 24.99C386.686 24.75 386.826 24.405 386.826 23.955C386.826 23.585 386.716 23.305 386.496 23.115C386.286 22.925 385.926 22.79 385.416 22.71L384.321 22.53C383.381 22.37 382.701 22.025 382.281 21.495C381.861 20.955 381.651 20.3 381.651 19.53C381.651 18.52 381.981 17.74 382.641 17.19C383.301 16.63 384.226 16.35 385.416 16.35C386.226 16.35 386.931 16.475 387.531 16.725C388.131 16.975 388.616 17.315 388.986 17.745L387.711 19.17C387.431 18.86 387.101 18.62 386.721 18.45C386.341 18.27 385.911 18.18 385.431 18.18C384.421 18.18 383.916 18.595 383.916 19.425C383.916 19.785 384.026 20.055 384.246 20.235C384.476 20.415 384.846 20.55 385.356 20.64L386.451 20.835C387.301 20.985 387.956 21.305 388.416 21.795C388.876 22.285 389.106 22.945 389.106 23.775C389.106 24.265 389.021 24.72 388.851 25.14C388.681 25.55 388.426 25.91 388.086 26.22C387.746 26.52 387.326 26.755 386.826 26.925C386.336 27.095 385.761 27.18 385.101 27.18Z" fill="white"/>
</svg>
